<svg xmlns="http://www.w3.org/2000/svg" viewBox="0 0 32 32">
  <rect width="32" height="32" fill="#2563eb"/>
  <g stroke="#ffffff" stroke-width="1.5" fill="none">
    <!-- Diagonal weave pattern -->
    <path d="M 8 4 L 12 8 L 8 12 L 4 8 Z"/>
    <path d="M 16 4 L 20 8 L 16 12 L 12 8 Z"/>
    <path d="M 24 4 L 28 8 L 24 12 L 20 8 Z"/>

    <path d="M 4 12 L 8 16 L 4 20 L 0 16 Z"/>
    <path d="M 12 12 L 16 16 L 12 20 L 8 16 Z"/>
    <path d="M 20 12 L 24 16 L 20 20 L 16 16 Z"/>
    <path d="M 28 12 L 32 16 L 28 20 L 24 16 Z"/>

    <path d="M 8 20 L 12 24 L 8 28 L 4 24 Z"/>
    <path d="M 16 20 L 20 24 L 16 28 L 12 24 Z"/>
    <path d="M 24 20 L 28 24 L 24 28 L 20 24 Z"/>
  </g>
</svg>
